<svg xmlns="http://www.w3.org/2000/svg" xmlns:xlink="http://www.w3.org/1999/xlink" width="250" height="250" viewBox="0 0 250 250">
  <defs>
    <clipPath id="clip-Attachement">
      <rect width="250" height="250"/>
    </clipPath>
  </defs>
  <g id="Attachement" clip-path="url(#clip-Attachement)">
    <rect width="250" height="250" fill="#fff"/>
    <g id="attach_1_" data-name="attach (1)" transform="translate(0 -11.334)">
      <g id="Group_17344" data-name="Group 17344" transform="translate(0 21.333)">
        <path id="Path_11396" data-name="Path 11396" d="M196.592,21.726c-10.917,1.389-20.856,7.06-28.638,14.841L52.286,152.236c-5.1,5.1-9,11.5-10.168,18.617A32.566,32.566,0,0,0,79.6,208.4c7.115-1.152,13.527-5.038,18.624-10.134L203.757,92.725a5.208,5.208,0,0,0,0-7.366l-7.364-7.364a5.208,5.208,0,0,0-7.366,0L82.439,184.583a11.682,11.682,0,0,1-16.521-16.521L184.078,49.9a26.241,26.241,0,0,1,18.677-7.736A26.671,26.671,0,0,1,221.743,87.3L98.579,214.718c-7.455,7.712-17.127,13.324-27.776,14.615-28.239,3.424-52.134-19.773-49.814-48.5.879-10.892,6.244-20.957,13.971-28.684L149.517,37.589a5.208,5.208,0,0,0,0-7.366l-7.364-7.364a5.208,5.208,0,0,0-7.366,0L19.119,138.527a65.316,65.316,0,0,0-.421,91.927c28.393,28.841,69.963,24.49,93.511.14L236.722,101.778a47.485,47.485,0,0,0-40.13-80.052Z" transform="translate(0 -21.333)" fill="#fff"/>
      </g>
    </g>
  </g>
</svg>
