<svg xmlns="http://www.w3.org/2000/svg" xmlns:xlink="http://www.w3.org/1999/xlink" width="250" height="250" viewBox="0 0 250 250">
  <defs>
    <clipPath id="clip-Calendar">
      <rect width="250" height="250"/>
    </clipPath>
  </defs>
  <g id="Calendar" clip-path="url(#clip-Calendar)">
    <rect width="250" height="250" fill="#fff"/>
    <g id="calendar-2" data-name="calendar" transform="translate(0 -13)">
      <path id="Path_11389" data-name="Path 11389" d="M250,94.629V66.1a21.891,21.891,0,0,0-21.973-21.759H225.1V70.936a7.325,7.325,0,0,1-14.648,0V32.253a7.325,7.325,0,0,0-14.648,0V44.341H146.973V70.936a7.325,7.325,0,0,1-14.648,0V32.253a7.325,7.325,0,0,0-14.648,0V44.341H68.848V70.936a7.325,7.325,0,0,1-14.648,0V32.253a7.325,7.325,0,0,0-14.648,0V44.341H21.973A21.891,21.891,0,0,0,0,66.1V94.629Z" fill="#fff"/>
      <path id="Path_11390" data-name="Path 11390" d="M0,199V316.5a21.891,21.891,0,0,0,21.973,21.759H228.027A21.891,21.891,0,0,0,250,316.5V199ZM70.313,299.575H54.688a7.253,7.253,0,1,1,0-14.506H70.313a7.253,7.253,0,1,1,0,14.506Zm0-30.946H54.688a7.253,7.253,0,1,1,0-14.506H70.313a7.253,7.253,0,1,1,0,14.506Zm0-30.946H54.688a7.253,7.253,0,1,1,0-14.506H70.313a7.253,7.253,0,1,1,0,14.506Zm62.5,61.892H117.188a7.253,7.253,0,1,1,0-14.506h15.625a7.253,7.253,0,1,1,0,14.506Zm0-30.946H117.188a7.253,7.253,0,1,1,0-14.506h15.625a7.253,7.253,0,1,1,0,14.506Zm0-30.946H117.188a7.253,7.253,0,1,1,0-14.506h15.625a7.253,7.253,0,1,1,0,14.506Zm62.5,61.892H179.688a7.253,7.253,0,1,1,0-14.506h15.625a7.253,7.253,0,1,1,0,14.506Zm0-30.946H179.688a7.253,7.253,0,1,1,0-14.506h15.625a7.253,7.253,0,1,1,0,14.506Zm0-30.946H179.688a7.253,7.253,0,1,1,0-14.506h15.625a7.253,7.253,0,1,1,0,14.506Z" transform="translate(0 -87.672)" fill="#fff"/>
    </g>
  </g>
</svg>
