<svg xmlns="http://www.w3.org/2000/svg" xmlns:xlink="http://www.w3.org/1999/xlink" width="250" height="250" viewBox="0 0 250 250">
  <defs>
    <clipPath id="clip-Chat">
      <rect width="250" height="250"/>
    </clipPath>
  </defs>
  <g id="Chat" clip-path="url(#clip-Chat)">
    <rect width="250" height="250" fill="#fff"/>
    <path id="Path_10822" data-name="Path 10822" d="M325.546,42.524A123.67,123.67,0,0,0,237.466,6.1c-68.212,0-123.841,55.629-123.841,123.841,0,21.854,5.96,43.046,16.556,62.252L112.3,256.432l65.563-17.219a122.731,122.731,0,0,0,59.6,15.232h0c68.212,0,123.841-55.629,123.841-123.841C361.969,96.829,349.387,65.7,325.546,42.524ZM238.128,233.253h0a103.769,103.769,0,0,1-52.318-14.57l-3.973-1.987-39.073,9.934,10.6-38.411-2.649-3.974a100.408,100.408,0,0,1-15.894-54.967A103.444,103.444,0,0,1,238.128,25.968c27.814,0,53.643,10.6,72.848,30.464a103.89,103.89,0,0,1,30.464,72.848C340.777,186.9,294.42,233.253,238.128,233.253Zm56.292-76.821c-3.311-1.325-18.543-9.272-21.192-9.934-2.649-1.324-4.636-1.324-7.285,1.324-1.987,3.311-7.947,9.934-9.934,11.921s-3.311,2.649-6.622.662a75.829,75.829,0,0,1-25.166-15.232c-9.272-7.947-15.232-18.543-17.219-21.192-1.987-3.311,0-4.636,1.324-6.622,3.311-3.974,6.623-8.609,7.947-10.6a5.046,5.046,0,0,0,0-5.3c-.662-1.324-7.285-16.556-9.271-23.179-2.649-5.96-5.3-5.3-7.285-5.3h-5.96a10.1,10.1,0,0,0-7.947,3.974c-2.649,3.311-10.6,10.6-10.6,25.828s11.258,29.8,12.583,31.788,21.854,33.113,52.98,47.02a126.707,126.707,0,0,0,17.881,6.623c7.285,2.649,13.907,1.987,19.868,1.325s18.543-7.285,21.192-14.57,2.649-13.245,1.987-14.57C299.718,158.418,297.731,157.756,294.42,156.431Z" transform="translate(-112.7 -6.432)" fill="#fff"/>
  </g>
</svg>
