<svg xmlns="http://www.w3.org/2000/svg" xmlns:xlink="http://www.w3.org/1999/xlink" width="250" height="250" viewBox="0 0 250 250">
  <defs>
    <clipPath id="clip-Dashboard">
      <rect width="250" height="250"/>
    </clipPath>
  </defs>
  <g id="Dashboard" clip-path="url(#clip-Dashboard)">
    <rect width="250" height="250" fill="#fff"/>
    <g id="dashboard_1_" data-name="dashboard (1)" transform="translate(0 -39.555)">
      <g id="Group_17336" data-name="Group 17336" transform="translate(0 76.555)">
        <path id="Path_11372" data-name="Path 11372" d="M165,83.044C78.75,55.544,0,119.294,0,201.794c0,11.25,1.25,32.5,5,45a5.377,5.377,0,0,0,5,5H238.75c2.5,0,5-2.5,6.25-5,2.5-12.5,5-33.75,5-45C250,148.044,216.25,99.294,165,83.044Zm-40,18.75c7.5,0,12.5,5,12.5,12.5s-5,12.5-12.5,12.5-12.5-5-12.5-12.5S117.5,101.794,125,101.794Zm-87.5,112.5c-7.5,0-12.5-5-12.5-12.5s5-12.5,12.5-12.5,12.5,5,12.5,12.5S45,214.294,37.5,214.294Zm35-65a12.083,12.083,0,0,1-17.5,0c-5-5-5-13.75-1.25-18.75a12.083,12.083,0,0,1,17.5,0C76.25,135.544,76.25,144.294,72.5,149.294Zm52.5,77.5c-13.75,0-26.25-12.5-22.5-25s22.5-50,22.5-50,18.75,37.5,22.5,50S138.75,226.794,125,226.794Zm71.25-77.5a12.374,12.374,0,1,1,0-17.5C200,135.544,200,144.294,196.25,149.294Zm16.25,65c-7.5,0-12.5-5-12.5-12.5s5-12.5,12.5-12.5,12.5,5,12.5,12.5S220,214.294,212.5,214.294Z" transform="translate(0 -76.555)" fill="#fff"/>
      </g>
    </g>
  </g>
</svg>
