<svg xmlns="http://www.w3.org/2000/svg" xmlns:xlink="http://www.w3.org/1999/xlink" width="250" height="250" viewBox="0 0 250 250">
  <defs>
    <clipPath id="clip-Documents">
      <rect width="250" height="250"/>
    </clipPath>
  </defs>
  <g id="Documents" clip-path="url(#clip-Documents)">
    <rect width="250" height="250" fill="#fff"/>
    <g id="interface" transform="translate(0 -33)">
      <g id="Group_15381" data-name="Group 15381" transform="translate(0 64)">
        <g id="Group_15380" data-name="Group 15380">
          <path id="Path_10667" data-name="Path 10667" d="M230.37,170.667H53.28a20.666,20.666,0,0,0-20.2,15.714c-.01.035-.025.076-.036.111L2.548,288.667a5.143,5.143,0,0,0,.163,3.392,20.737,20.737,0,0,0,19.319,13h177.09a20.741,20.741,0,0,0,19.99-15c.046-.111.086-.222.122-.338l30.946-91.989a5.031,5.031,0,0,0,.214-.9,19.932,19.932,0,0,0,.813-5.493A20.775,20.775,0,0,0,230.37,170.667Z" transform="translate(-1.204 -117.557)" fill="#fff"/>
          <path id="Path_10668" data-name="Path 10668" d="M4.465,171.284a4.807,4.807,0,0,0,.754.056,5.207,5.207,0,0,0,5-3.7l11.62-38.9c.015-.061.031-.116.046-.177a31.2,31.2,0,0,1,30.261-23.214H212.824a5.232,5.232,0,0,0,4.262-2.191,5.141,5.141,0,0,0,.652-4.71,20.862,20.862,0,0,0-19.6-13.775h-96.91L81.9,65.514A5.233,5.233,0,0,0,78.212,64H20.857A20.787,20.787,0,0,0,0,84.676v81.5A5.183,5.183,0,0,0,4.465,171.284Z" transform="translate(0 -64)" fill="#fff"/>
        </g>
      </g>
    </g>
  </g>
</svg>
