<svg xmlns="http://www.w3.org/2000/svg" xmlns:xlink="http://www.w3.org/1999/xlink" width="250" height="250" viewBox="0 0 250 250">
  <defs>
    <clipPath id="clip-Excel">
      <rect width="250" height="250"/>
    </clipPath>
  </defs>
  <g id="Excel" clip-path="url(#clip-Excel)">
    <rect width="250" height="250" fill="#fff"/>
    <g id="spreadsheet">
      <path id="Path_11402" data-name="Path 11402" d="M104.1,3H16V31.692H45.144V51.221H16V70.308H44.846V89.538H16v19.231H44.846V128H16v19.231H44.846v19.231H16v28.846h88.1a8.236,8.236,0,0,0,8.058-8.365V11.365A8.236,8.236,0,0,0,104.1,3ZM92.923,166.462H54.462V147.231H92.923Zm0-38.462H54.462V108.769H92.923Zm0-38.462H54.462V70.308H92.923Zm0-38.462H54.462V31.846H92.923Z" transform="translate(137.846 25.846)" fill="#fff"/>
      <path id="Path_11403" data-name="Path 11403" d="M0,27.779V222.231L144.231,250V0ZM91.231,173.846,74.452,142.125a28.136,28.136,0,0,1-1.971-6.519h-.26a49.369,49.369,0,0,1-2.25,6.8L53.135,173.846H26.99l31.038-48.692-28.394-48.7H56.327l13.923,29.2a51.015,51.015,0,0,1,2.923,8.212h.269q.822-2.856,3.058-8.49L91.981,76.442h24.442l-29.2,48.288,30.019,49.106-26.01.01Z" fill="#fff"/>
    </g>
  </g>
</svg>
