<svg xmlns="http://www.w3.org/2000/svg" xmlns:xlink="http://www.w3.org/1999/xlink" width="250" height="250" viewBox="0 0 250 250">
  <defs>
    <clipPath id="clip-GST_Filing">
      <rect width="250" height="250"/>
    </clipPath>
  </defs>
  <g id="GST_Filing" data-name="GST Filing" clip-path="url(#clip-GST_Filing)">
    <rect width="250" height="250" fill="#fff"/>
    <path id="Path_11371" data-name="Path 11371" d="M249.968,53.6,197.9,1.532A5.19,5.19,0,0,0,194.208,0H84.833A20.857,20.857,0,0,0,64,20.833V229.167A20.857,20.857,0,0,0,84.833,250H230.667A20.857,20.857,0,0,0,251.5,229.167V57.292A5.191,5.191,0,0,0,249.968,53.6ZM162.958,218.75h-62.5a5.208,5.208,0,1,1,0-10.417h62.5a5.208,5.208,0,1,1,0,10.417Zm52.083-31.25H100.459a5.208,5.208,0,1,1,0-10.417H215.042a5.208,5.208,0,1,1,0,10.417Zm0-31.25H100.459a5.208,5.208,0,1,1,0-10.417H215.042a5.208,5.208,0,1,1,0,10.417Zm0-31.25H100.459a5.208,5.208,0,1,1,0-10.417H215.042a5.208,5.208,0,1,1,0,10.417Zm0-31.25h-62.5a5.208,5.208,0,0,1,0-10.417h62.5a5.208,5.208,0,1,1,0,10.417Zm-5.208-41.667a10.427,10.427,0,0,1-10.416-10.417V17.782l34.3,34.3Z" transform="translate(-33.001)" fill="#fff"/>
  </g>
</svg>
