<svg xmlns="http://www.w3.org/2000/svg" xmlns:xlink="http://www.w3.org/1999/xlink" width="250" height="250" viewBox="0 0 250 250">
  <defs>
    <clipPath id="clip-help">
      <rect width="250" height="250"/>
    </clipPath>
  </defs>
  <g id="help" clip-path="url(#clip-help)">
    <rect width="250" height="250" fill="#fff"/>
    <g id="help-2" data-name="help">
      <path id="Path_11386" data-name="Path 11386" d="M213.389,36.611A125,125,0,0,0,36.611,213.389,125,125,0,0,0,213.389,36.611ZM125.01,210.938a7.813,7.813,0,0,1,0-15.625h0a7.813,7.813,0,1,1,0,15.625Zm24.85-80.217a57.82,57.82,0,0,0-17.047,41.155,7.813,7.813,0,0,1-15.625,0,73.342,73.342,0,0,1,21.624-52.2A45.9,45.9,0,0,0,152.344,87a24.528,24.528,0,0,0-24.5-24.5h-1.78a24.528,24.528,0,0,0-24.5,24.5v2.843a7.813,7.813,0,0,1-15.625,0V87a40.171,40.171,0,0,1,40.125-40.125h1.78A40.171,40.171,0,0,1,167.969,87,61.423,61.423,0,0,1,149.859,130.72Z" transform="translate(0)" fill="#fff"/>
    </g>
  </g>
</svg>
