<svg xmlns="http://www.w3.org/2000/svg" xmlns:xlink="http://www.w3.org/1999/xlink" width="250" height="250" viewBox="0 0 250 250">
  <defs>
    <clipPath id="clip-Mail">
      <rect width="250" height="250"/>
    </clipPath>
  </defs>
  <g id="Mail" clip-path="url(#clip-Mail)">
    <rect width="250" height="250" fill="#fff"/>
    <g id="mail_2_" data-name="mail (2)" transform="translate(0 -33)">
      <g id="Group_17346" data-name="Group 17346" transform="translate(0 64)">
        <g id="Group_17345" data-name="Group 17345" transform="translate(0 0)">
          <path id="Path_11397" data-name="Path 11397" d="M8.757,79.213c34.311,29.058,94.517,80.18,112.213,96.12a10.453,10.453,0,0,0,15.122.02c17.71-15.956,77.916-67.082,112.228-96.14a5.2,5.2,0,0,0,.732-7.187A20.683,20.683,0,0,0,232.7,64H24.371A20.681,20.681,0,0,0,8.024,72.026,5.2,5.2,0,0,0,8.757,79.213Z" transform="translate(-3.538 -64)" fill="#fff"/>
          <path id="Path_11398" data-name="Path 11398" d="M420.116,126.9a5.185,5.185,0,0,0-5.554.753c-22.471,19.048-52.078,44.215-74.407,63.42a5.2,5.2,0,0,0,.143,8.011c20.747,16.617,52.012,39.475,74.59,55.72a5.209,5.209,0,0,0,8.25-4.227V131.622A5.206,5.206,0,0,0,420.116,126.9Z" transform="translate(-173.137 -95.937)" fill="#fff"/>
          <path id="Path_11399" data-name="Path 11399" d="M8.25,254.806c22.583-16.246,53.853-39.1,74.6-55.72a5.2,5.2,0,0,0,.143-8.011C60.659,171.87,31.046,146.7,8.576,127.655A5.209,5.209,0,0,0,0,131.627V250.579a5.207,5.207,0,0,0,8.25,4.227Z" transform="translate(0 -95.942)" fill="#fff"/>
          <path id="Path_11400" data-name="Path 11400" d="M248.029,349.928c-21.8-15.6-61.971-44.683-85.948-64.143a5.22,5.22,0,0,0-6.7.117c-4.7,4.1-8.642,7.563-11.434,10.076-8.576,7.741-20.478,7.741-29.073-.01-2.782-2.507-6.719-5.977-11.424-10.066a5.188,5.188,0,0,0-6.7-.117C72.853,305.178,32.641,334.3,10.8,349.927a5.207,5.207,0,0,0-.783,7.782,20.869,20.869,0,0,0,15.229,6.684H233.579a20.9,20.9,0,0,0,15.233-6.684,5.208,5.208,0,0,0-.784-7.782Z" transform="translate(-4.413 -176.893)" fill="#fff"/>
        </g>
      </g>
    </g>
  </g>
</svg>
