<svg xmlns="http://www.w3.org/2000/svg" xmlns:xlink="http://www.w3.org/1999/xlink" width="250" height="250" viewBox="0 0 250 250">
  <defs>
    <clipPath id="clip-Master_Data_Mgt">
      <rect width="250" height="250"/>
    </clipPath>
  </defs>
  <g id="Master_Data_Mgt" data-name="Master Data Mgt" clip-path="url(#clip-Master_Data_Mgt)">
    <rect width="250" height="250" fill="#fff"/>
    <g id="technology" transform="translate(0 -24.294)">
      <path id="Path_10665" data-name="Path 10665" d="M219.93,250.083H30.072C13.468,250.083,0,263.246,0,279.478s13.468,29.387,30.072,29.387H219.929c16.612,0,30.071-13.157,30.071-29.387S236.541,250.083,219.93,250.083Zm-42.819,36.011a8.943,8.943,0,1,1,9.146-8.94A9.046,9.046,0,0,1,177.111,286.094Zm30.817,0a8.943,8.943,0,1,1,9.146-8.94A9.046,9.046,0,0,1,207.927,286.094Z" transform="translate(0 -72.318)" fill="#fff"/>
      <path id="Path_10666" data-name="Path 10666" d="M222.891,164.144a40.376,40.376,0,0,1,25.739,9.2L196.442,63.022a3.057,3.057,0,0,0-2.77-1.73H62.1a3.057,3.057,0,0,0-2.77,1.73L7.139,173.341a40.381,40.381,0,0,1,25.74-9.2ZM101,93.459a6.741,6.741,0,0,1,8.951,2.827,6.361,6.361,0,0,1-.863,7.175l10.708,8.926,5.554-13.137a6.482,6.482,0,0,1-4.114-6.006,6.654,6.654,0,0,1,13.3,0,6.483,6.483,0,0,1-4.113,6.006l5.555,13.137,10.706-8.926a6.361,6.361,0,0,1-.862-7.175,6.74,6.74,0,0,1,8.949-2.827,6.435,6.435,0,0,1,2.9,8.742,6.687,6.687,0,0,1-6.459,3.519h0l-2.15,25.786a1.511,1.511,0,0,1-1.521,1.369h-39.3a1.512,1.512,0,0,1-1.521-1.369l-2.149-25.786A6.646,6.646,0,0,1,98.1,102.2,6.435,6.435,0,0,1,101,93.459Z" transform="translate(-2.884 0)" fill="#fff"/>
    </g>
  </g>
</svg>
