<svg xmlns="http://www.w3.org/2000/svg" xmlns:xlink="http://www.w3.org/1999/xlink" width="250" height="250" viewBox="0 0 250 250">
  <defs>
    <clipPath id="clip-Notification">
      <rect width="250" height="250"/>
    </clipPath>
  </defs>
  <g id="Notification" clip-path="url(#clip-Notification)">
    <rect width="250" height="250" fill="#fff"/>
    <g id="bell" transform="translate(-21.676)">
      <g id="Group_17341" data-name="Group 17341" transform="translate(42.675)">
        <g id="Group_17340" data-name="Group 17340">
          <path id="Path_11384" data-name="Path 11384" d="M250.262,210.865l-17.885-29.813a88.556,88.556,0,0,1-12.625-45.562V109.375a73.009,73.009,0,0,0-52.083-69.844v-18.7a20.834,20.834,0,0,0-41.667,0v18.7a73.009,73.009,0,0,0-52.083,69.844V135.49A88.61,88.61,0,0,1,61.3,181.042L43.418,210.855a5.217,5.217,0,0,0,4.458,7.9H245.793a5.207,5.207,0,0,0,4.469-7.886Z" transform="translate(-42.675)" fill="#fff"/>
        </g>
      </g>
      <g id="Group_17343" data-name="Group 17343" transform="translate(114.033 229.167)">
        <g id="Group_17342" data-name="Group 17342">
          <path id="Path_11385" data-name="Path 11385" d="M188.815,469.333a36.24,36.24,0,0,0,65.6,0Z" transform="translate(-188.815 -469.333)" fill="#fff"/>
        </g>
      </g>
    </g>
  </g>
</svg>
