<svg xmlns="http://www.w3.org/2000/svg" xmlns:xlink="http://www.w3.org/1999/xlink" width="250" height="250" viewBox="0 0 250 250">
  <defs>
    <clipPath id="clip-Page_Tips">
      <rect width="250" height="250"/>
    </clipPath>
  </defs>
  <g id="Page_Tips" data-name="Page Tips" clip-path="url(#clip-Page_Tips)">
    <rect width="250" height="250" fill="#fff"/>
    <g id="idea">
      <path id="Path_11373" data-name="Path 11373" d="M19.063,36.01A7.815,7.815,0,0,1,11.25,28.2V7.813a7.813,7.813,0,0,1,15.625,0V28.2A7.815,7.815,0,0,1,19.063,36.01Z" transform="translate(105.938)" fill="#fff"/>
      <path id="Path_11374" data-name="Path 11374" d="M25.631,33.344A7.818,7.818,0,0,1,20.11,20L34.527,5.583A7.815,7.815,0,1,1,45.579,16.635L31.162,31.052A7.836,7.836,0,0,1,25.631,33.344Z" transform="translate(167.817 31.021)" fill="#fff"/>
      <path id="Path_11375" data-name="Path 11375" d="M48.741,26.875H28.355a7.813,7.813,0,1,1,0-15.625H48.741a7.813,7.813,0,0,1,0,15.625Z" transform="translate(193.447 105.938)" fill="#fff"/>
      <path id="Path_11376" data-name="Path 11376" d="M40.048,47.87a7.751,7.751,0,0,1-5.521-2.292L20.11,31.161A7.815,7.815,0,0,1,31.162,20.109L45.579,34.526A7.818,7.818,0,0,1,40.048,47.87Z" transform="translate(167.817 167.807)" fill="#fff"/>
      <path id="Path_11377" data-name="Path 11377" d="M11.105,47.87A7.818,7.818,0,0,1,5.584,34.526L20,20.109A7.815,7.815,0,1,1,31.053,31.161L16.636,45.578A7.792,7.792,0,0,1,11.105,47.87Z" transform="translate(31.03 167.807)" fill="#fff"/>
      <path id="Path_11378" data-name="Path 11378" d="M28.2,26.875H7.813a7.813,7.813,0,0,1,0-15.625H28.2a7.813,7.813,0,0,1,0,15.625Z" transform="translate(0 105.938)" fill="#fff"/>
      <path id="Path_11379" data-name="Path 11379" d="M25.522,33.344A7.751,7.751,0,0,1,20,31.052L5.584,16.635A7.815,7.815,0,0,1,16.636,5.583L31.053,20a7.818,7.818,0,0,1-5.531,13.344Z" transform="translate(31.03 31.021)" fill="#fff"/>
      <path id="Path_11380" data-name="Path 11380" d="M71.5,21V34.021A18.317,18.317,0,0,1,53.271,52.25H27.229C18.479,52.25,9,45.583,9,31V21Z" transform="translate(84.75 197.75)" fill="#fff"/>
      <path id="Path_11381" data-name="Path 11381" d="M123.866,21.237A73.188,73.188,0,0,0,62.3,6.654c-27.6,5.729-50,28.229-55.729,55.833a72.981,72.981,0,0,0,27.5,73.646,31.454,31.454,0,0,1,11.875,19.9v.1a1.773,1.773,0,0,1,.729-.1h62.5a.939.939,0,0,1,.521.1v-.1c1.458-7.917,6.146-15.208,13.333-20.833a72.957,72.957,0,0,0,.833-113.958Zm-6.875,61.875a7.869,7.869,0,0,1-7.812-7.812A28.63,28.63,0,0,0,80.533,46.654a7.813,7.813,0,0,1,0-15.625A44.367,44.367,0,0,1,124.8,75.3,7.869,7.869,0,0,1,116.991,83.112Z" transform="translate(47.071 47.096)" fill="#fff"/>
      <path id="Path_11382" data-name="Path 11382" d="M8.93,19.5h.729a1.773,1.773,0,0,0-.729.1Z" transform="translate(84.091 183.625)" fill="#fff"/>
      <path id="Path_11383" data-name="Path 11383" d="M15.521,19.5v.1A.939.939,0,0,0,15,19.5Z" transform="translate(141.25 183.625)" fill="#fff"/>
    </g>
  </g>
</svg>
