<svg xmlns="http://www.w3.org/2000/svg" xmlns:xlink="http://www.w3.org/1999/xlink" width="764" height="204" viewBox="0 0 764 204">
  <defs>
    <clipPath id="clip-Pay_invoice_Color_logo">
      <rect width="764" height="204"/>
    </clipPath>
  </defs>
  <g id="Pay_invoice_Color_logo" data-name="Pay invoice Color logo" clip-path="url(#clip-Pay_invoice_Color_logo)">
    <rect width="764" height="204" fill="#fff"/>
    <g id="Group_16257" data-name="Group 16257" transform="translate(22702.002 23568)">
      <path id="Path_10673" data-name="Path 10673" d="M8.46,120.886,25.174,17.353l49.5-.123a36.757,36.757,0,0,1,14.26,2.545A27.485,27.485,0,0,1,99.082,26.86a24.975,24.975,0,0,1,5.489,10.764,34.448,34.448,0,0,1,.337,13.678A37.844,37.844,0,0,1,100.247,64.4a38.279,38.279,0,0,1-8.955,10.611A43.309,43.309,0,0,1,63.753,84.7l-24.6.061-5.827,36.1ZM66.943,38.237,46.672,38.3l-4.232,26.19,20.118-.061c5.029,0,8.986-1.288,11.9-3.8a15.3,15.3,0,0,0,5.275-9.415,10.946,10.946,0,0,0-2.269-9.231C75.376,39.464,71.849,38.206,66.943,38.237Z" transform="translate(-22710.463 -23545.227)" fill="#fff"/>
      <path id="Path_10674" data-name="Path 10674" d="M62.825,104.363c-7.514.031-13.34-2.116-17.48-6.379-4.14-4.293-5.643-9.814-4.539-16.622a23.615,23.615,0,0,1,10.3-16.376C56.845,61.092,64.3,59.1,73.467,59.1a40.781,40.781,0,0,1,8.127.8,46.4,46.4,0,0,1,8.679,2.7l1.012-6.225c.583-3.649-.184-6.409-2.361-8.28-2.147-1.871-5.7-2.791-10.611-2.791a41.206,41.206,0,0,0-9.538,1.288,85.978,85.978,0,0,0-12.3,4.109l-5.4-16.683a114.278,114.278,0,0,1,18.584-6.256A72.857,72.857,0,0,1,86.715,25.64c10.335-.031,17.94,2.453,22.878,7.483s6.655,12.052,5.183,21.13l-7.882,48.822-23.154.061,1.073-6.655a41.929,41.929,0,0,1-10.826,6.011A33.443,33.443,0,0,1,62.825,104.363Zm-.4-23.491a5.414,5.414,0,0,0,2.116,5.673c1.809,1.319,4.508,1.993,8.066,1.963a27.174,27.174,0,0,0,7.176-.981,29.286,29.286,0,0,0,6.9-2.913l1.564-9.752A60.774,60.774,0,0,0,81.992,73.7a49.528,49.528,0,0,0-6.379-.429,18.634,18.634,0,0,0-9.2,1.963A7.667,7.667,0,0,0,62.427,80.872Z" transform="translate(-22644.338 -23527.848)" fill="#fff"/>
      <path id="Path_10675" data-name="Path 10675" d="M88.711,106.7l1.595-2.821L75.371,26.135l25.914-.061,6.962,49.221,25.025-49.313L158.6,25.92l-47.32,85.286q-7.314,13.018-15.487,18.462-8.188,5.428-21.068,5.459a45.228,45.228,0,0,1-4.661-.276,31.01,31.01,0,0,1-4.845-.889l3.251-20.118c2.361.276,3.925.46,4.692.521.767.031,1.472.061,2.147.061a15.7,15.7,0,0,0,8.066-1.932A14.845,14.845,0,0,0,88.711,106.7Z" transform="translate(-22593.15 -23527.27)" fill="#fff"/>
      <path id="Path_10676" data-name="Path 10676" d="M95.2,120.614,111.914,17.081l24.9-.061L120.1,120.553Z" transform="translate(-22531.193 -23545.658)" fill="#fff"/>
      <path id="Path_10677" data-name="Path 10677" d="M109.5,103.069l12.328-76.331,23.461-.061L143.3,39.1a39.327,39.327,0,0,1,11.991-10.151,29.009,29.009,0,0,1,13.8-3.5q10.856-.046,16.622,7.268,5.75,7.314,3.925,18.707l-8.372,51.46-23.461.061,7.176-44.529c.675-4.232.092-7.667-1.748-10.274s-4.631-3.895-8.4-3.895a16.616,16.616,0,0,0-7.115,1.564,20.263,20.263,0,0,0-6.348,4.815l-8.464,52.38Z" transform="translate(-22501.639 -23528.232)" fill="#fff"/>
      <path id="Path_10678" data-name="Path 10678" d="M151.17,97.638,137.4,53.6l17.511-6.563,10.151,35.513,46.86-58.329,21.467,1.012-59.4,73.632-16.07,21.9Z" transform="translate(-22443.977 -23530.777)" fill="#fff"/>
      <path id="Path_10679" data-name="Path 10679" d="M166.023,64.9a46.718,46.718,0,0,1,5.49-15.7A47.152,47.152,0,0,1,195.4,28.377a42.683,42.683,0,0,1,15.886-3.067,36.192,36.192,0,0,1,15,3.005,30.286,30.286,0,0,1,11.1,8.25,30.8,30.8,0,0,1,6.164,12.482,38.689,38.689,0,0,1,.429,15.671,44.949,44.949,0,0,1-5.582,15.7,47.846,47.846,0,0,1-23.982,20.823,42.722,42.722,0,0,1-15.916,3.067,35.7,35.7,0,0,1-14.935-3.005,29.679,29.679,0,0,1-11.01-8.311,31,31,0,0,1-6.133-12.543A39.285,39.285,0,0,1,166.023,64.9Zm35.82,19.106a17.192,17.192,0,0,0,12.512-5.428,24.366,24.366,0,0,0,6.778-13.831c.92-5.612.123-10.274-2.3-13.954a12.121,12.121,0,0,0-10.764-5.52,16.9,16.9,0,0,0-12.482,5.581A25.475,25.475,0,0,0,188.84,64.84c-.889,5.612-.153,10.212,2.27,13.831C193.532,82.229,197.12,84.038,201.843,84.007Z" transform="translate(-22386.029 -23528.52)" fill="#fff"/>
      <path id="Path_10680" data-name="Path 10680" d="M229.709,51.62l-12.328,76.331-23.46.061,12.328-76.331ZM219.9,39.813a10.652,10.652,0,0,1-8.709-3.895,11.282,11.282,0,0,1-2.331-9.384,15.674,15.674,0,0,1,5.428-9.476,14.756,14.756,0,0,1,9.905-4.017A10.8,10.8,0,0,1,232.868,17a11.318,11.318,0,0,1,2.453,9.446,15.655,15.655,0,0,1-5.367,9.415A14.693,14.693,0,0,1,219.9,39.813Z" transform="translate(-22327.166 -23553.883)" fill="#fff"/>
      <path id="Path_10681" data-name="Path 10681" d="M245.88,83.479a20.458,20.458,0,0,0,8.771-1.932,23.3,23.3,0,0,0,7.483-5.643l11.623,14.015a46.752,46.752,0,0,1-15.088,10.458,43.648,43.648,0,0,1-17.6,3.8,34.905,34.905,0,0,1-14.72-3.005A29.708,29.708,0,0,1,215.4,92.863a31,31,0,0,1-6.134-12.543A38.517,38.517,0,0,1,208.8,64.8a45.3,45.3,0,0,1,5.49-15.548,48.752,48.752,0,0,1,10.212-12.6,47.634,47.634,0,0,1,13.647-8.4,41.822,41.822,0,0,1,15.671-3.067,38.2,38.2,0,0,1,16.714,3.588,29.458,29.458,0,0,1,12.144,10.4L266,53.854a20.147,20.147,0,0,0-6.379-6.256,15.917,15.917,0,0,0-8.219-1.963,17.209,17.209,0,0,0-12.451,5.489,24.311,24.311,0,0,0-6.839,13.616q-1.288,8,2.607,13.371A12.944,12.944,0,0,0,245.88,83.479Z" transform="translate(-22297.578 -23528.793)" fill="#fff"/>
      <path id="Path_10682" data-name="Path 10682" d="M299.9,91.843a60.325,60.325,0,0,1-16.131,9.446,50.23,50.23,0,0,1-17.266,2.944,35.8,35.8,0,0,1-14.935-3.005,30.528,30.528,0,0,1-17.511-20.854,37.416,37.416,0,0,1-.521-15.518,47.293,47.293,0,0,1,5.428-15.7,49.657,49.657,0,0,1,9.906-12.6,45.386,45.386,0,0,1,13.279-8.4,39.748,39.748,0,0,1,15.4-3.067A32.473,32.473,0,0,1,291.9,28.085,27.481,27.481,0,0,1,302.113,36.4a31.272,31.272,0,0,1,5.52,12.788,44.82,44.82,0,0,1,.123,16.346l-.828,5.183-51.368.123a15.653,15.653,0,0,0,4.692,10.335,14.318,14.318,0,0,0,10.488,3.956,23.085,23.085,0,0,0,8.74-1.656,19.644,19.644,0,0,0,7.053-4.753ZM274.42,43.7a15.049,15.049,0,0,0-9.844,3.588,23.5,23.5,0,0,0-6.808,9.936l29.655-.092c-.307-4.14-1.595-7.422-3.895-9.814A12.058,12.058,0,0,0,274.42,43.7Z" transform="translate(-22246.445 -23529)" fill="#fff"/>
      <g id="Group_15393" data-name="Group 15393" transform="translate(-22337.279 -23549)">
        <path id="Path_10683" data-name="Path 10683" d="M148.351,44.482l2.821-18.155H249.8l-2.791,18.155H261.33l5.275-34.1H139.335l-5.275,34.1Z" transform="translate(-113.605 -10.38)" fill="#fff"/>
        <path id="Path_10684" data-name="Path 10684" d="M245.091,54.62l-2.269,14.72H144.165l2.269-14.72H132.113l-4.723,30.7H254.66l4.723-30.7Z" transform="translate(-127.39 81.052)" fill="#fff"/>
      </g>
      <path id="Path_10685" data-name="Path 10685" d="M8.46,68.411l24.9-.061L36.95,46.208c-9.139-1.135-17.235-2.361-24.289-3.588Z" transform="translate(-22710.463 -23492.756)" fill="#fff" opacity="0.18"/>
      <path id="Path_10686" data-name="Path 10686" d="M79.786,46.688a27.174,27.174,0,0,1-7.176.981c-3.4,0-5.949-.613-7.759-1.809q-12.788-.092-24.381-.46a17.073,17.073,0,0,0,4.876,11.715c4.14,4.263,9.967,6.409,17.48,6.379a33.442,33.442,0,0,0,11.163-1.871,43.392,43.392,0,0,0,10.826-6.011l-1.073,6.655,23.154-.061,2.668-16.744c-9.538.245-18.707.4-27.447.429C81.319,46.167,80.552,46.473,79.786,46.688Z" transform="translate(-22644.305 -23487.01)" fill="#fff" opacity="0.18"/>
      <path id="Path_10687" data-name="Path 10687" d="M90.316,65.745l-1.595,2.821a14.343,14.343,0,0,1-5.336,5.765,15.628,15.628,0,0,1-8.066,1.932c-.675,0-1.411-.031-2.147-.061-.767-.061-2.331-.215-4.692-.521L65.23,95.8a35.046,35.046,0,0,0,4.845.889,45.233,45.233,0,0,0,4.661.276q12.88-.046,21.069-5.459c5.459-3.619,10.611-9.752,15.487-18.462L127.209,44.37c-14.2.92-27.662,1.656-40.542,2.208Z" transform="translate(-22593.133 -23489.139)" fill="#fff" opacity="0.18"/>
      <path id="Path_10688" data-name="Path 10688" d="M95.2,67.169l24.9-.061,3.925-24.227c-8.618.8-17.02,1.5-25.239,2.177Z" transform="translate(-22531.193 -23492.215)" fill="#fff" opacity="0.18"/>
      <path id="Path_10689" data-name="Path 10689" d="M125.26,72.855l23.461-.061,5.305-32.783c-7.79.736-15.7,1.472-23.8,2.239Z" transform="translate(-22469.063 -23498.146)" fill="#fff" opacity="0.18"/>
      <path id="Path_10690" data-name="Path 10690" d="M109.5,69.836l23.461-.061L137.53,41.53c-7.79.736-15.732,1.533-23.8,2.3Z" transform="translate(-22501.639 -23495)" fill="#fff" opacity="0.18"/>
      <path id="Path_10691" data-name="Path 10691" d="M161.352,54.256l-3.68-12.911q-9.062.828-18.462,1.687l8.219,26.282,6.777,23.093,16.07-21.9,26.313-32.6c-7.728.644-15.671,1.349-23.767,2.055Z" transform="translate(-22440.242 -23502.486)" fill="#fff" opacity="0.18"/>
      <path id="Path_10692" data-name="Path 10692" d="M221.153,43.564A24.655,24.655,0,0,1,214.376,57.4a17.192,17.192,0,0,1-12.512,5.428c-4.723,0-8.311-1.779-10.7-5.367-2.423-3.588-3.159-8.188-2.269-13.831a30.974,30.974,0,0,1,1.165-4.631q-11.408.828-23.43,1.809c-.215.951-.429,1.932-.613,2.913a38.519,38.519,0,0,0,.46,15.518,31.6,31.6,0,0,0,6.133,12.543,29.929,29.929,0,0,0,11.01,8.311,36.087,36.087,0,0,0,14.935,3.005,42.96,42.96,0,0,0,15.916-3.067,47.944,47.944,0,0,0,13.708-8.311A49.276,49.276,0,0,0,238.45,59.2a45.352,45.352,0,0,0,5.582-15.7,47.541,47.541,0,0,0,.583-7.943c-7.514.368-15.272.828-23.246,1.319A27.677,27.677,0,0,1,221.153,43.564Z" transform="translate(-22386.012 -23507.338)" fill="#fff" opacity="0.18"/>
      <path id="Path_10693" data-name="Path 10693" d="M193.92,82.5l23.46-.061,7.636-47.381q-11.362.276-23.553.767Z" transform="translate(-22327.166 -23508.373)" fill="#fff" opacity="0.18"/>
      <path id="Path_10694" data-name="Path 10694" d="M211.482,35.009a46.078,46.078,0,0,0-2.668,9.568,38.518,38.518,0,0,0,.46,15.518,31.6,31.6,0,0,0,6.133,12.543,29.963,29.963,0,0,0,10.948,8.311,35.281,35.281,0,0,0,14.72,3.005,43.54,43.54,0,0,0,17.6-3.8,47.233,47.233,0,0,0,15.088-10.458L262.144,55.679a23.3,23.3,0,0,1-7.483,5.643,20.557,20.557,0,0,1-8.771,1.932c-4.815,0-8.526-1.779-11.132-5.367s-3.465-8.035-2.607-13.371a24.55,24.55,0,0,1,3.527-9.384C227.919,34.978,219.884,34.917,211.482,35.009Z" transform="translate(-22297.561 -23508.57)" fill="#fff" opacity="0.18"/>
      <path id="Path_10695" data-name="Path 10695" d="M233.534,42.049a37.942,37.942,0,0,0,.521,15.518,30.527,30.527,0,0,0,17.511,20.854A36.086,36.086,0,0,0,266.5,81.426a49.637,49.637,0,0,0,17.266-2.944A59.856,59.856,0,0,0,299.9,69.037L286.527,55.911a19.644,19.644,0,0,1-7.054,4.753,23.693,23.693,0,0,1-8.74,1.656,14.52,14.52,0,0,1-10.488-3.956,15.72,15.72,0,0,1-4.692-10.335l32.875-.092c-15.7-5.459-33.213-9.354-53.515-11.838A41.972,41.972,0,0,0,233.534,42.049Z" transform="translate(-22246.443 -23506.229)" fill="#fff" opacity="0.18"/>
    </g>
    <g id="Group_16258" data-name="Group 16258" transform="translate(22339.332 23058.49)">
      <path id="Path_10870" data-name="Path 10870" d="M9.16,218.407,25.874,114.873l49.5-.123A36.758,36.758,0,0,1,89.632,117.3a27.484,27.484,0,0,1,10.151,7.084,24.975,24.975,0,0,1,5.49,10.764,34.448,34.448,0,0,1,.337,13.678,37.844,37.844,0,0,1-4.662,13.1,38.279,38.279,0,0,1-8.955,10.611,43.31,43.31,0,0,1-27.54,9.691l-24.6.061-5.827,36.1Zm58.484-82.681-20.271.061-4.232,26.19,20.118-.061c5.03,0,8.986-1.288,11.9-3.8a15.3,15.3,0,0,0,5.275-9.415,10.946,10.946,0,0,0-2.269-9.231C76.077,136.984,72.55,135.727,67.644,135.727Z" transform="translate(-22348.492 -23133.209)" fill="#00b42c"/>
      <path id="Path_10871" data-name="Path 10871" d="M63.526,201.885c-7.514.031-13.341-2.116-17.481-6.379-4.14-4.294-5.643-9.814-4.539-16.622a23.615,23.615,0,0,1,10.3-16.377c5.735-3.895,13.187-5.888,22.357-5.888a40.786,40.786,0,0,1,8.127.8,46.4,46.4,0,0,1,8.679,2.7l1.012-6.226c.583-3.649-.184-6.41-2.361-8.28-2.147-1.871-5.7-2.791-10.611-2.791a41.208,41.208,0,0,0-9.538,1.288,85.978,85.978,0,0,0-12.3,4.11l-5.4-16.683a114.275,114.275,0,0,1,18.585-6.256,72.856,72.856,0,0,1,17.051-2.116c10.335-.031,17.941,2.453,22.878,7.483s6.655,12.052,5.183,21.13L107.6,200.6l-23.154.061L85.515,194a41.935,41.935,0,0,1-10.826,6.011A33.446,33.446,0,0,1,63.526,201.885Zm-.4-23.522a5.415,5.415,0,0,0,2.116,5.674c1.809,1.319,4.508,1.993,8.066,1.963a27.171,27.171,0,0,0,7.176-.981,29.287,29.287,0,0,0,6.9-2.913l1.564-9.752a60.77,60.77,0,0,0-6.256-1.165,49.531,49.531,0,0,0-6.379-.429,18.634,18.634,0,0,0-9.2,1.963A7.778,7.778,0,0,0,63.127,178.362Z" transform="translate(-22282.367 -23115.822)" fill="#00b42c"/>
      <path id="Path_10872" data-name="Path 10872" d="M89.442,204.209l1.595-2.821L76.1,123.645l25.914-.061,6.962,49.222L134,123.491l25.332-.061-47.351,85.287q-7.314,13.018-15.487,18.462-8.188,5.428-21.069,5.459a45.241,45.241,0,0,1-4.662-.276,31.015,31.015,0,0,1-4.846-.889l3.251-20.118c2.361.276,3.925.46,4.692.521.767.031,1.472.061,2.147.061a15.705,15.705,0,0,0,8.066-1.932A14.715,14.715,0,0,0,89.442,204.209Z" transform="translate(-22231.184 -23115.268)" fill="#00b42c"/>
      <path id="Path_10873" data-name="Path 10873" d="M95.9,218.136,112.614,114.6l24.9-.061L120.8,218.075Z" transform="translate(-22169.219 -23133.635)" fill="#164f6d"/>
      <path id="Path_10874" data-name="Path 10874" d="M110.2,200.59l12.328-76.332,23.461-.061L144,136.617a39.329,39.329,0,0,1,11.991-10.151,29.009,29.009,0,0,1,13.8-3.5q10.856-.046,16.622,7.268,5.75,7.314,3.926,18.707l-8.311,51.491-23.461.061,7.176-44.53c.675-4.232.092-7.667-1.748-10.274s-4.631-3.895-8.4-3.895a16.617,16.617,0,0,0-7.115,1.564,20.265,20.265,0,0,0-6.348,4.815l-8.464,52.381Z" transform="translate(-22139.668 -23116.217)" fill="#164f6d"/>
      <path id="Path_10875" data-name="Path 10875" d="M151.87,195.149,138.1,151.11l17.511-6.563,10.151,35.513,46.86-58.33,21.468,1.012-59.4,73.634-16.07,21.9Z" transform="translate(-22082.002 -23118.781)" fill="#00b42c"/>
      <path id="Path_10876" data-name="Path 10876" d="M166.717,162.422a46.72,46.72,0,0,1,5.489-15.7A47.152,47.152,0,0,1,196.1,125.9a42.683,42.683,0,0,1,15.886-3.067,36.193,36.193,0,0,1,15,3.005,30.287,30.287,0,0,1,11.1,8.25,30.8,30.8,0,0,1,6.164,12.482,38.686,38.686,0,0,1,.429,15.671,44.948,44.948,0,0,1-5.582,15.7,47.846,47.846,0,0,1-23.982,20.824,42.722,42.722,0,0,1-15.916,3.067,35.706,35.706,0,0,1-14.935-3.005,29.678,29.678,0,0,1-11.01-8.311,31,31,0,0,1-6.134-12.543A39.881,39.881,0,0,1,166.717,162.422Zm35.82,19.106a17.191,17.191,0,0,0,12.512-5.428,24.367,24.367,0,0,0,6.778-13.831c.92-5.612.123-10.274-2.3-13.954a12.122,12.122,0,0,0-10.764-5.52,16.9,16.9,0,0,0-12.482,5.582,25.475,25.475,0,0,0-6.747,13.985c-.889,5.612-.153,10.212,2.269,13.831C194.226,179.75,197.814,181.559,202.537,181.528Z" transform="translate(-22024.041 -23116.502)" fill="#164f6d"/>
      <path id="Path_10877" data-name="Path 10877" d="M230.409,149.14l-12.329,76.332-23.461.061L206.948,149.2ZM220.6,137.333a10.653,10.653,0,0,1-8.71-3.895,11.282,11.282,0,0,1-2.331-9.384,15.675,15.675,0,0,1,5.428-9.476,14.756,14.756,0,0,1,9.906-4.017,10.8,10.8,0,0,1,8.679,3.956,11.318,11.318,0,0,1,2.453,9.446,15.655,15.655,0,0,1-5.367,9.415A14.693,14.693,0,0,1,220.6,137.333Z" transform="translate(-21965.188 -23141.867)" fill="#164f6d"/>
      <path id="Path_10878" data-name="Path 10878" d="M246.581,181a20.458,20.458,0,0,0,8.771-1.932,23.3,23.3,0,0,0,7.483-5.643l11.623,14.015A46.754,46.754,0,0,1,259.369,197.9a43.648,43.648,0,0,1-17.6,3.8,34.907,34.907,0,0,1-14.721-3.005,29.709,29.709,0,0,1-10.948-8.311,31,31,0,0,1-6.134-12.543,38.517,38.517,0,0,1-.46-15.518,45.3,45.3,0,0,1,5.49-15.549,48.756,48.756,0,0,1,10.212-12.6,47.635,47.635,0,0,1,13.647-8.4,41.822,41.822,0,0,1,15.671-3.067,38.2,38.2,0,0,1,16.714,3.588,29.458,29.458,0,0,1,12.145,10.4L266.7,151.374a20.147,20.147,0,0,0-6.379-6.256,15.917,15.917,0,0,0-8.219-1.963,17.21,17.21,0,0,0-12.451,5.489,24.311,24.311,0,0,0-6.839,13.617q-1.288,8,2.607,13.371C238.055,179.221,241.766,181,246.581,181Z" transform="translate(-21935.598 -23116.775)" fill="#164f6d"/>
      <path id="Path_10879" data-name="Path 10879" d="M300.606,189.364a60.324,60.324,0,0,1-16.131,9.446,50.231,50.231,0,0,1-17.266,2.944,35.8,35.8,0,0,1-14.935-3.005,30.528,30.528,0,0,1-17.511-20.854,37.416,37.416,0,0,1-.521-15.518,47.293,47.293,0,0,1,5.428-15.7,49.658,49.658,0,0,1,9.906-12.6,45.385,45.385,0,0,1,13.279-8.4,39.748,39.748,0,0,1,15.4-3.067,32.474,32.474,0,0,1,14.353,3.005,27.482,27.482,0,0,1,10.212,8.311,31.271,31.271,0,0,1,5.52,12.788,44.818,44.818,0,0,1,.123,16.346l-.828,5.183-51.369.123a15.653,15.653,0,0,0,4.692,10.335,14.318,14.318,0,0,0,10.488,3.956,23.085,23.085,0,0,0,8.74-1.656,19.644,19.644,0,0,0,7.054-4.754Zm-25.485-48.149a15.05,15.05,0,0,0-9.844,3.588,23.5,23.5,0,0,0-6.808,9.936l29.656-.092c-.307-4.14-1.595-7.422-3.895-9.814A12.012,12.012,0,0,0,275.121,141.215Z" transform="translate(-21884.467 -23116.98)" fill="#164f6d"/>
      <g id="Group_15790" data-name="Group 15790" transform="translate(-21974.604 -23039.49)">
        <path id="Path_10880" data-name="Path 10880" d="M149.051,142.023l2.821-18.155H250.5l-2.791,18.155h14.322l5.275-34.133H140.035l-5.275,34.133Z" transform="translate(-114.305 -107.89)" fill="#d0d2d3"/>
        <path id="Path_10881" data-name="Path 10881" d="M245.793,152.14l-2.269,14.721H144.865l2.269-14.721H132.843l-4.753,30.668H255.362l4.753-30.668Z" transform="translate(-128.09 -16.435)" fill="#d0d2d3"/>
      </g>
    </g>
  </g>
</svg>
