<svg xmlns="http://www.w3.org/2000/svg" xmlns:xlink="http://www.w3.org/1999/xlink" width="250" height="250" viewBox="0 0 250 250">
  <defs>
    <clipPath id="clip-PDF">
      <rect width="250" height="250"/>
    </clipPath>
  </defs>
  <g id="PDF" clip-path="url(#clip-PDF)">
    <rect width="250" height="250" fill="#fff"/>
    <g id="pdf-2" data-name="pdf" transform="translate(-5 0.001)">
      <path id="Path_11391" data-name="Path 11391" d="M228.238,145H30.973A22,22,0,0,0,9,166.973v87.891a22,22,0,0,0,21.973,21.973H228.238a22,22,0,0,0,21.973-21.973V166.973A22,22,0,0,0,228.238,145ZM66.979,222.313c-1.873,0-5.072.013-8.066.028v16.893a7.324,7.324,0,1,1-14.648,0L44.156,183.6a7.324,7.324,0,0,1,7.324-7.348h15.5a23.034,23.034,0,1,1,0,46.064Zm62.875,22.48c-4.362.076-15.274.118-15.736.12h-.028a7.324,7.324,0,0,1-7.324-7.3c0-.2-.109-54.026-.109-54.026a7.324,7.324,0,0,1,7.324-7.338h15.3c17.428,0,29.137,13.8,29.137,34.332,0,19.534-12.012,33.922-28.561,34.211Zm75.054-42a7.324,7.324,0,1,1,0,14.648H191.617v20.825a7.324,7.324,0,0,1-14.648,0V183.009a7.324,7.324,0,0,1,7.324-7.324h22.394a7.324,7.324,0,1,1,0,14.648h-15.07v12.455Z" transform="translate(0 -74.199)" fill="#fff"/>
      <path id="Path_11392" data-name="Path 11392" d="M246.987,239h-7.96c.011,6.611.051,32.966.072,39.328,3.048-.02,6.312-.046,8.209-.08,9.788-.171,14.169-9.95,14.169-19.565C261.476,254.065,260.431,239,246.987,239Z" transform="translate(-117.709 -122.301)" fill="#fff"/>
      <path id="Path_11393" data-name="Path 11393" d="M119.2,239h-8.152c.009,3.259.017,6.727.017,8.383,0,1.936.014,5.294.029,8.412,3.006-.015,6.217-.029,8.106-.029a8.389,8.389,0,1,0,0-16.767Z" transform="translate(-52.218 -122.301)" fill="#fff"/>
      <path id="Path_11394" data-name="Path 11394" d="M249.3,56.152a36.554,36.554,0,0,0-7.826-12.637l-30.422-32.09A36.775,36.775,0,0,0,184.48,0H86.973A22,22,0,0,0,65,21.973v34.18Z" transform="translate(-28.656)" fill="#fff"/>
      <path id="Path_11395" data-name="Path 11395" d="M65,445v10.742a22,22,0,0,0,21.973,21.973H229.551a22,22,0,0,0,21.973-21.973V445Z" transform="translate(-28.656 -227.715)" fill="#fff"/>
    </g>
  </g>
</svg>
