<svg xmlns="http://www.w3.org/2000/svg" xmlns:xlink="http://www.w3.org/1999/xlink" width="250" height="250" viewBox="0 0 250 250">
  <defs>
    <clipPath id="clip-Phone">
      <rect width="250" height="250"/>
    </clipPath>
  </defs>
  <g id="Phone" clip-path="url(#clip-Phone)">
    <rect width="250" height="250" fill="#fff"/>
    <g id="Group_15656" data-name="Group 15656" transform="translate(56 0.01)">
      <g id="Group_15431" data-name="Group 15431">
        <path id="Path_10288" data-name="Path 10288" d="M176.234,6.7h-84.7C77.195,6.7,64.9,18.312,64.9,32.655v198.08c0,14.344,12.295,25.955,26.638,25.955h84.7a25.944,25.944,0,0,0,25.955-25.955V32.655C202.873,18.312,190.578,6.7,176.234,6.7ZM121.592,22.41h24.589a4.407,4.407,0,0,1,4.1,4.1,4.407,4.407,0,0,1-4.1,4.1H121.592a4.407,4.407,0,0,1-4.1-4.1Q118.518,22.41,121.592,22.41Zm-14.344.683a4.155,4.155,0,0,1,5.464,0,5.179,5.179,0,0,1,1.366,2.732,4.83,4.83,0,0,1-4.1,4.1,3.549,3.549,0,0,1-2.732-1.366,5.179,5.179,0,0,1-1.366-2.732A5.179,5.179,0,0,1,107.248,23.093ZM133.2,249.177a11.612,11.612,0,1,1,11.612-11.612A11.512,11.512,0,0,1,133.2,249.177Zm57.375-31.42H79.244V43.584H190.578V217.757Z" transform="translate(-64.9 -6.7)" fill="#fff"/>
      </g>
    </g>
  </g>
</svg>
