<svg xmlns="http://www.w3.org/2000/svg" xmlns:xlink="http://www.w3.org/1999/xlink" width="250" height="250" viewBox="0 0 250 250">
  <defs>
    <clipPath id="clip-Print">
      <rect width="250" height="250"/>
    </clipPath>
  </defs>
  <g id="Print" clip-path="url(#clip-Print)">
    <rect width="250" height="250" fill="#fff"/>
    <g id="print-2" data-name="print" transform="translate(-0.5)">
      <path id="Path_11404" data-name="Path 11404" d="M251.586,48.34V36.621A36.663,36.663,0,0,0,214.965,0H125.121A36.663,36.663,0,0,0,88.5,36.621V48.34Z" transform="translate(-45.031)" fill="#fff"/>
      <path id="Path_11405" data-name="Path 11405" d="M118.5,319v79.59a14.648,14.648,0,0,0,14.648,14.648H237.641a14.648,14.648,0,0,0,14.648-14.648V319Zm86.426,62.5H165.863a7.324,7.324,0,1,1,0-14.648h39.063a7.324,7.324,0,0,1,0,14.648Zm0-31.25H165.863a7.324,7.324,0,1,1,0-14.648h39.063a7.324,7.324,0,0,1,0,14.648Z" transform="translate(-60.383 -163.238)" fill="#fff"/>
      <path id="Path_11406" data-name="Path 11406" d="M213.391,129H37.121A36.663,36.663,0,0,0,.5,165.621v58.594a36.663,36.663,0,0,0,36.621,36.621h6.348V221.773H39.074a7.324,7.324,0,0,1,0-14.648H210.949a7.324,7.324,0,0,1,0,14.648h-4.395v39.063h6.836a36.663,36.663,0,0,0,36.621-36.621V165.621A36.663,36.663,0,0,0,213.391,129ZM62.512,174.9H39.074a7.324,7.324,0,0,1,0-14.648H62.512a7.324,7.324,0,0,1,0,14.648Z" transform="translate(0 -66.012)" fill="#fff"/>
    </g>
  </g>
</svg>
