<svg xmlns="http://www.w3.org/2000/svg" xmlns:xlink="http://www.w3.org/1999/xlink" width="250" height="250" viewBox="0 0 250 250">
  <defs>
    <clipPath id="clip-Purchases">
      <rect width="250" height="250"/>
    </clipPath>
  </defs>
  <g id="Purchases" clip-path="url(#clip-Purchases)">
    <rect width="250" height="250" fill="#fff"/>
    <g id="Group_17335" data-name="Group 17335" transform="translate(-13 -20.689)">
      <g id="basket" transform="translate(13 35.689)">
        <path id="Path_10557" data-name="Path 10557" d="M242.676,113.472H216.9L160.5,34.1a6.785,6.785,0,0,0-10.294-1.288A8.968,8.968,0,0,0,149.066,44.4l49.074,69.073H51.86L100.934,44.4A8.97,8.97,0,0,0,99.79,32.808,6.784,6.784,0,0,0,89.5,34.1L33.1,113.472H7.324c-4.045,0-7.324,3.693-7.324,8.247v16.495c0,4.555,3.279,8.247,7.324,8.247H242.676c4.045,0,7.324-3.693,7.324-8.247V121.719c0-4.555-3.279-8.247-7.324-8.247Z" transform="translate(0 -31)" fill="#fff"/>
        <path id="Path_10558" data-name="Path 10558" d="M60.934,380.48c.881,3.541,3.7,5.982,6.908,5.982H212.488c3.208,0,6.027-2.441,6.908-5.982L246.644,271H33.686Zm112.137-36.61,7.184-49.482c.652-4.494,4.354-7.531,8.268-6.779s6.558,5,5.906,9.49l-7.184,49.483c-.586,4.035-3.629,6.893-7.078,6.893a6.236,6.236,0,0,1-1.19-.114C175.063,352.612,172.419,348.363,173.071,343.869Zm-40.091-48.128c0-4.554,3.217-8.247,7.184-8.247s7.184,3.693,7.184,8.247v49.484c0,4.555-3.217,8.247-7.184,8.247s-7.184-3.692-7.184-8.247Zm-40.7-8.134c3.914-.748,7.615,2.286,8.268,6.779l7.184,49.482c.652,4.494-1.992,8.742-5.906,9.491a6.273,6.273,0,0,1-1.19.114c-3.449,0-6.492-2.859-7.078-6.893L86.38,297.1C85.728,292.605,88.371,288.355,92.286,287.608Z" transform="translate(-15.165 -166.735)" fill="#fff"/>
      </g>
    </g>
  </g>
</svg>
