<svg xmlns="http://www.w3.org/2000/svg" xmlns:xlink="http://www.w3.org/1999/xlink" width="250" height="250" viewBox="0 0 250 250">
  <defs>
    <clipPath id="clip-Reconciliation">
      <rect width="250" height="250"/>
    </clipPath>
  </defs>
  <g id="Reconciliation" clip-path="url(#clip-Reconciliation)">
    <rect width="250" height="250" fill="#fff"/>
    <g id="bill_2_" data-name="bill (2)" transform="translate(7.999)">
      <g id="Group_14653" data-name="Group 14653" transform="translate(0)">
        <path id="Path_10560" data-name="Path 10560" d="M211.315,0H47.261l.656.312a34.815,34.815,0,0,0-31.9,34.623v58.81h62.5V242.176a7.814,7.814,0,0,0,10.718,7.25l36.155-14.468,36.155,14.468a7.6,7.6,0,0,0,5.8,0l36.17-14.468,36.155,14.468a7.877,7.877,0,0,0,2.906.562,7.82,7.82,0,0,0,7.812-7.812V39.061A39.1,39.1,0,0,0,211.315,0ZM78.509,46.873V78.121H31.636V34.936A19.344,19.344,0,0,1,50.948,15.624H59.2A19.344,19.344,0,0,1,78.509,34.936ZM211.315,187.491h-62.5a7.812,7.812,0,1,1,0-15.624h62.5a7.812,7.812,0,0,1,0,15.624Zm0-31.249h-62.5a7.812,7.812,0,1,1,0-15.624h62.5a7.812,7.812,0,0,1,0,15.624Zm0-31.249H117.57a7.812,7.812,0,1,1,0-15.624h93.746a7.812,7.812,0,1,1,0,15.624Zm0-62.5H117.57a7.812,7.812,0,1,1,0-15.624h93.746a7.812,7.812,0,1,1,0,15.624Z" transform="translate(-16.012)" fill="#fff"/>
        <path id="Path_11370" data-name="Path 11370" d="M211.315,0H47.261l.656.312a34.815,34.815,0,0,0-31.9,34.623v58.81h62.5V242.176a7.814,7.814,0,0,0,10.718,7.25l36.155-14.468,36.155,14.468a7.6,7.6,0,0,0,5.8,0l36.17-14.468,36.155,14.468a7.877,7.877,0,0,0,2.906.562,7.82,7.82,0,0,0,7.812-7.812V39.061A39.1,39.1,0,0,0,211.315,0ZM78.509,46.873V78.121H31.636V34.936A19.344,19.344,0,0,1,50.948,15.624H59.2A19.344,19.344,0,0,1,78.509,34.936ZM211.315,187.491h-62.5a7.812,7.812,0,1,1,0-15.624h62.5a7.812,7.812,0,0,1,0,15.624Zm0-31.249h-62.5a7.812,7.812,0,1,1,0-15.624h62.5a7.812,7.812,0,0,1,0,15.624Zm0-31.249H117.57a7.812,7.812,0,1,1,0-15.624h93.746a7.812,7.812,0,1,1,0,15.624Zm0-62.5H117.57a7.812,7.812,0,1,1,0-15.624h93.746a7.812,7.812,0,1,1,0,15.624Z" transform="translate(-16.007)" fill="#fff"/>
      </g>
    </g>
  </g>
</svg>
