<svg xmlns="http://www.w3.org/2000/svg" xmlns:xlink="http://www.w3.org/1999/xlink" width="250" height="250" viewBox="0 0 250 250">
  <defs>
    <clipPath id="clip-Reports">
      <rect width="250" height="250"/>
    </clipPath>
  </defs>
  <g id="Reports" clip-path="url(#clip-Reports)">
    <rect width="250" height="250" fill="#fff"/>
    <g id="bars" transform="translate(0 0.3)">
      <path id="Path_10671" data-name="Path 10671" d="M52.927,118.95A21.628,21.628,0,0,0,68.1,112.679l21.636,11a21.877,21.877,0,1,0,41.387-6.852l29.35-29.854a21.362,21.362,0,0,0,9.393,2.236A22.045,22.045,0,0,0,190.7,60.3l25.5-19.449a21.521,21.521,0,0,0,12.138,3.752,22.143,22.143,0,0,0,21.927-22.3,21.928,21.928,0,1,0-42.76,6.606l-25.5,19.449a21.521,21.521,0,0,0-12.138-3.752,22.222,22.222,0,0,0-19.729,31.857l-29.35,29.854a21.362,21.362,0,0,0-9.393-2.236,21.627,21.627,0,0,0-15.178,6.271l-21.636-11A21.905,21.905,0,1,0,31,96.647,22.143,22.143,0,0,0,52.927,118.95Zm0,0" transform="translate(-15.636 0)" fill="#fff"/>
      <path id="Path_10672" data-name="Path 10672" d="M242.676,311.1h-7.812V157.279A7.3,7.3,0,0,0,227.539,150h-29.3a7.3,7.3,0,0,0-7.324,7.279V311.1H176.27V200.95a7.3,7.3,0,0,0-7.324-7.279h-29.3a7.3,7.3,0,0,0-7.324,7.279V311.1H117.676v-51.92a7.3,7.3,0,0,0-7.324-7.279h-29.3a7.3,7.3,0,0,0-7.324,7.279V311.1H59.082V230.065a7.3,7.3,0,0,0-7.324-7.279h-29.3a7.3,7.3,0,0,0-7.324,7.279V311.1H7.324a7.279,7.279,0,1,0,0,14.557H242.676a7.279,7.279,0,1,0,0-14.557Zm0,0" transform="translate(0 -75.656)" fill="#fff"/>
    </g>
  </g>
</svg>
