<svg xmlns="http://www.w3.org/2000/svg" xmlns:xlink="http://www.w3.org/1999/xlink" width="250" height="250" viewBox="0 0 250 250">
  <defs>
    <clipPath id="clip-Settings">
      <rect width="250" height="250"/>
    </clipPath>
  </defs>
  <g id="Settings" clip-path="url(#clip-Settings)">
    <rect width="250" height="250" fill="#fff"/>
    <path id="symbol" d="M244.118,94.36,224.9,90.277A100.943,100.943,0,0,0,218.719,75.7l10.637-16.173a7.181,7.181,0,0,0-1-9.111L198.421,21.157a7.6,7.6,0,0,0-9.321-.979l-16.546,10.4a105.931,105.931,0,0,0-14.912-6.044L153.465,5.75a7.433,7.433,0,0,0-7.3-5.75H103.834a7.433,7.433,0,0,0-7.3,5.75L92.358,24.531a105.928,105.928,0,0,0-14.912,6.044L60.9,20.178a7.6,7.6,0,0,0-9.321.979L21.645,50.416a7.181,7.181,0,0,0-1,9.111L31.28,75.7A100.945,100.945,0,0,0,25.1,90.277L5.882,94.36A7.343,7.343,0,0,0,0,101.494v41.378a7.343,7.343,0,0,0,5.882,7.135L25.1,154.09a100.944,100.944,0,0,0,6.184,14.576L20.643,184.839a7.181,7.181,0,0,0,1,9.111L51.578,223.21a7.6,7.6,0,0,0,9.321.979l16.546-10.4a105.932,105.932,0,0,0,14.912,6.044l4.177,18.782a7.433,7.433,0,0,0,7.3,5.75h42.332a7.433,7.433,0,0,0,7.3-5.75l4.177-18.782a105.929,105.929,0,0,0,14.912-6.044l16.546,10.4a7.6,7.6,0,0,0,9.321-.979l29.934-29.259a7.181,7.181,0,0,0,1-9.111l-10.637-16.173A100.947,100.947,0,0,0,224.9,154.09l19.215-4.083A7.343,7.343,0,0,0,250,142.872V101.494A7.343,7.343,0,0,0,244.118,94.36Zm-74.3,27.824c0,24.157-20.107,43.811-44.821,43.811S80.179,146.34,80.179,122.183,100.286,78.373,125,78.373,169.821,98.027,169.821,122.183Zm0,0" transform="translate(0 3)" fill="#fff"/>
  </g>
</svg>
