<svg xmlns="http://www.w3.org/2000/svg" xmlns:xlink="http://www.w3.org/1999/xlink" width="250" height="250" viewBox="0 0 250 250">
  <defs>
    <clipPath id="clip-Sync">
      <rect width="250" height="250"/>
    </clipPath>
  </defs>
  <g id="Sync" clip-path="url(#clip-Sync)">
    <rect width="250" height="250" fill="#fff"/>
    <g id="passage-of-time" transform="translate(0 9.999)">
      <g id="Layer_1_65_" transform="translate(0 0)">
        <g id="Group_14634" data-name="Group 14634">
          <path id="Path_10544" data-name="Path 10544" d="M249.275,99.265a5.255,5.255,0,0,0-4.762-3.024H228.958a115.37,115.37,0,1,0-13.509,78.746A10.5,10.5,0,0,0,197.28,164.47a94.559,94.559,0,1,1,10.2-68.224H192.051a5.248,5.248,0,0,0-4.039,8.609l26.242,31.487a5.249,5.249,0,0,0,8.062,0l26.242-31.487A5.246,5.246,0,0,0,249.275,99.265Z" transform="translate(0 -1.775)" fill="#fff"/>
          <path id="Path_10545" data-name="Path 10545" d="M34.112,6.713a9.052,9.052,0,0,0-9.053,9.053V70.7a15.827,15.827,0,0,0,9.058,28.819A15.645,15.645,0,0,0,40.8,97.987l31.491,18.175a8.957,8.957,0,0,0,4.52,1.219,9.051,9.051,0,0,0,4.529-16.892l-31.523-18.2a15.768,15.768,0,0,0-6.642-11.579V15.766A9.071,9.071,0,0,0,34.112,6.713Zm0,83.742A6.786,6.786,0,1,1,40.9,83.671,6.8,6.8,0,0,1,34.112,90.455Z" transform="translate(77.615 39.473)" fill="#fff"/>
        </g>
      </g>
    </g>
  </g>
</svg>
