<svg xmlns="http://www.w3.org/2000/svg" xmlns:xlink="http://www.w3.org/1999/xlink" width="250" height="250" viewBox="0 0 250 250">
  <defs>
    <clipPath id="clip-Update">
      <rect width="250" height="250"/>
    </clipPath>
  </defs>
  <g id="Update" clip-path="url(#clip-Update)">
    <rect width="250" height="250" fill="#fff"/>
    <g id="Group_17347" data-name="Group 17347" transform="translate(0 -0.271)">
      <path id="Path_11201" data-name="Path 11201" d="M192.006.737a7.822,7.822,0,0,0-4.5,7.078V31.253H31.256A31.292,31.292,0,0,0,.006,62.5v101l31.25-26.047V62.5h156.25V85.941a7.809,7.809,0,0,0,12.813,6l46.875-39.063a7.806,7.806,0,0,0,0-12L200.318,1.815A7.792,7.792,0,0,0,192.006.737Z" transform="translate(-0.006 0.271)" fill="#fff"/>
      <path id="Path_11202" data-name="Path 11202" d="M218.756,278.16H62.506V254.722a7.809,7.809,0,0,0-12.813-6L2.819,287.785a7.806,7.806,0,0,0,0,12l46.875,39.063a7.809,7.809,0,0,0,12.813-6V309.41h156.25a31.282,31.282,0,0,0,31.25-31.25v-101l-31.25,26.047V278.16Z" transform="translate(-0.006 -90.486)" fill="#fff"/>
    </g>
  </g>
</svg>
