<svg xmlns="http://www.w3.org/2000/svg" xmlns:xlink="http://www.w3.org/1999/xlink" width="250" height="250" viewBox="0 0 250 250">
  <defs>
    <clipPath id="clip-Upload">
      <rect width="250" height="250"/>
    </clipPath>
  </defs>
  <g id="Upload" clip-path="url(#clip-Upload)">
    <rect width="250" height="250" fill="#fff"/>
    <g id="Group_17339" data-name="Group 17339" transform="translate(-648.381 -21.3)">
      <path id="Path_10534" data-name="Path 10534" d="M251.09,65.172l-54.7-62.5a7.8,7.8,0,0,0-11.752,0l-54.7,62.5a7.808,7.808,0,0,0,5.876,12.953h31.258V179.688a7.816,7.816,0,0,0,7.814,7.813h31.257a7.816,7.816,0,0,0,7.814-7.813V78.125h31.257a7.809,7.809,0,0,0,5.876-12.953Z" transform="translate(583.083 21.3)" fill="#fff"/>
      <g id="Group_14591" data-name="Group 14591" transform="translate(656.381 193.175)">
        <path id="Path_10535" data-name="Path 10535" d="M219.172,352v46.876H47.257V352H16v62.5a15.622,15.622,0,0,0,15.629,15.624H234.8A15.612,15.612,0,0,0,250.429,414.5V352Z" transform="translate(-16 -352)" fill="#fff"/>
      </g>
    </g>
  </g>
</svg>
