<svg xmlns="http://www.w3.org/2000/svg" xmlns:xlink="http://www.w3.org/1999/xlink" width="250" height="250" viewBox="0 0 250 250">
  <defs>
    <clipPath id="clip-User">
      <rect width="250" height="250"/>
    </clipPath>
  </defs>
  <g id="User" clip-path="url(#clip-User)">
    <rect width="250" height="250" fill="#fff"/>
    <g id="user-2" data-name="user" transform="translate(0 0)">
      <g id="Group_14637" data-name="Group 14637">
        <path id="Path_10554" data-name="Path 10554" d="M125,0A125,125,0,1,0,250,125,125.143,125.143,0,0,0,125,0Zm0,36.458a59.9,59.9,0,1,1-59.9,59.9A59.966,59.966,0,0,1,125,36.458Zm0,192.708a103.96,103.96,0,0,1-83.239-41.8c20.838-10.026,50.6-20.7,83.239-20.7s62.406,10.671,83.239,20.695A103.959,103.959,0,0,1,125,229.167Z" fill="#fff"/>
      </g>
    </g>
  </g>
</svg>
