<svg xmlns="http://www.w3.org/2000/svg" xmlns:xlink="http://www.w3.org/1999/xlink" width="250" height="250" viewBox="0 0 250 250">
  <defs>
    <clipPath id="clip-World">
      <rect width="250" height="250"/>
    </clipPath>
  </defs>
  <g id="World" clip-path="url(#clip-World)">
    <rect width="250" height="250" fill="#fff"/>
    <g id="Group_15657" data-name="Group 15657">
      <g id="Group_15434" data-name="Group 15434">
        <path id="Path_10289" data-name="Path 10289" d="M125.342,6.7C56.164,6.7,0,62.711,0,131.7s56.164,125,125.342,125S250,200.689,250,131.7,193.836,6.7,125.342,6.7Zm0,228.825c-28.082,0-54.11-11.612-73.288-30.055V188.394c0-4.781,2.055-8.2,4.795-11.612,2.74-4.1,5.479-8.2,5.479-14.344,0-10.246-8.9-10.929-13.7-11.612-3.425-.683-6.849-.683-8.9-2.732-1.37-1.366-2.74-4.1-4.11-6.831-2.74-5.464-6.849-12.3-14.384-17.076,3.425-53.962,48.63-97.678,104.11-97.678a33.436,33.436,0,0,1,8.219.683c-.685.683-1.37.683-2.055,1.366a7.31,7.31,0,0,0-1.37,4.1,3.755,3.755,0,0,0,2.055,3.415c2.055,1.366,2.055,2.732,2.055,2.732s-1.37,2.049-6.164,4.781c-8.9,4.781-19.178,13.661-20.548,23.224a12.579,12.579,0,0,0,3.425,10.929,5.239,5.239,0,0,0,3.425,1.366c7.534,0,13.014-2.732,18.493-5.464s10.959-5.464,18.493-5.464c20.548,0,36.3,4.781,36.3,10.246,0,2.049-.685,2.732-.685,2.732-2.74,2.732-10.959,2.049-19.178,2.049h-6.164A28.677,28.677,0,0,1,150,81.154c-2.74-1.366-6.164-2.732-14.384-2.732-8.9,0-24.658,1.366-34.932,11.612-8.219,8.2-7.534,18.443-6.849,25.273v4.1c0,10.246,10.274,15.71,20.548,15.71,15.753,0,29.452,2.732,31.507,5.464,0,6.148,2.055,9.563,3.425,12.978a15.537,15.537,0,0,1,2.055,7.514c0,2.049-.685,2.732-1.37,4.1-2.055,2.732-4.11,5.464-4.11,11.612,0,10.929,10.274,23.224,11.644,24.59.685,1.366,2.74,2.049,4.11,2.049h1.37c2.74-.683,30.137-8.2,30.137-25.956,0-5.464,2.055-6.831,4.11-9.563,2.74-2.049,6.164-5.464,6.164-11.612,0-4.1,7.534-15.027,14.384-22.541a9.691,9.691,0,0,0,1.37-4.1,3.755,3.755,0,0,0-2.055-3.415c-4.11-3.415-15.068-13.661-19.178-23.224,2.055,1.366,4.795,2.732,6.849,4.781a8.806,8.806,0,0,0,6.849,2.732c4.11,0,8.9-3.415,13.7-7.514a91.052,91.052,0,0,1,4.11,27.322C229.452,189.077,182.192,235.525,125.342,235.525Z" transform="translate(0 -6.7)" fill="#fff"/>
      </g>
    </g>
  </g>
</svg>
